<?xml version="1.0" encoding="utf-8"?>
<svg xmlns="http://www.w3.org/2000/svg"
	xmlns:xlink="http://www.w3.org/1999/xlink"
	width="20px" height="19px" viewBox="0 0 20 19">
<path fillRule="evenodd" d="M 20 16.68C 20 16.68 17.69 19.01 17.69 19.01 17.69 19.01 13.11 14.41 13.11 14.41 11.73 15.53 9.97 16.2 8.06 16.2 3.61 16.2 0.01 12.57 0.01 8.1 0.01 3.62 3.61-0 8.06-0 12.51-0 16.11 3.62 16.12 8.1 16.12 9.45 15.78 10.73 15.2 11.85 15.2 11.85 20 16.68 20 16.68ZM 8.06 3.29C 5.43 3.29 3.29 5.45 3.29 8.1 3.29 10.75 5.43 12.9 8.06 12.9 10.7 12.9 12.84 10.75 12.84 8.1 12.84 5.45 10.7 3.29 8.06 3.29Z" fill="rgb(67,171,215)"/></svg>