<?xml version="1.0" encoding="utf-8"?>
<svg xmlns="http://www.w3.org/2000/svg"
	xmlns:xlink="http://www.w3.org/1999/xlink"
	width="12px" height="9px" viewBox="0 0 12 9">
<path fillRule="evenodd" d="M 1.34 5.3C 1.34 5.3 9.33 5.3 9.33 5.3 9.33 5.3 6.93 7.7 6.93 7.7 6.68 7.95 6.68 8.36 6.93 8.61 7.18 8.87 7.59 8.87 7.84 8.61 7.84 8.61 11.34 5.11 11.34 5.11 11.46 4.99 11.53 4.83 11.53 4.66 11.53 4.48 11.46 4.32 11.34 4.2 11.34 4.2 7.84 0.7 7.84 0.7 7.71 0.57 7.55 0.51 7.39 0.51 7.22 0.51 7.06 0.57 6.93 0.7 6.68 0.95 6.68 1.36 6.93 1.61 6.93 1.61 9.33 4.01 9.33 4.01 9.33 4.01 1.34 4.01 1.34 4.01 0.98 4.01 0.7 4.3 0.7 4.66 0.7 5.01 0.98 5.3 1.34 5.3Z" fill="rgb(239,69,75)"/></svg>