<svg version="1.1" xmlns="http://www.w3.org/2000/svg" xmlns:xlink="http://www.w3.org/1999/xlink" width="18" height="18"><defs/><g><path fill="rgb(255,255,255)" stroke="none" paint-order="stroke fill markers" fill-rule="evenodd" d=" M 8.500038146972656 16.999326944351196 C 4.35784912109375 16.999326944351196 1.0000381469726562 13.641688346862793 1.0000381469726562 9.49918657541275 C 1.0000381469726562 5.357021510601044 4.35784912109375 1.9993829131126404 8.500038146972656 1.9993829131126404 C 12.642112731933594 1.9993829131126404 16.000038146972656 5.357021510601044 16.000038146972656 9.49918657541275 C 16.000038146972656 13.641688346862793 12.642112731933594 16.999326944351196 8.500038146972656 16.999326944351196 Z M 8.500038146972656 3.874502182006836 C 5.393424987792969 3.874502182006836 2.8750381469726562 6.393067836761475 2.8750381469726562 9.49918657541275 C 2.8750381469726562 12.605978727340698 5.393424987792969 15.124544382095337 8.500038146972656 15.124544382095337 C 11.606651306152344 15.124544382095337 14.125038146972656 12.605978727340698 14.125038146972656 9.49918657541275 C 14.125038146972656 6.393067836761475 11.606651306152344 3.874502182006836 8.500038146972656 3.874502182006836 Z M 11.256690979003906 12.880731344223022 C 11.256690979003906 12.880731344223022 11.092010498046875 12.97702944278717 11.092010498046875 12.97702944278717 C 11.092010498046875 12.97702944278717 10.615592956542969 13.266597151756287 10.615592956542969 13.266597151756287 C 10.615592956542969 13.266597151756287 10.334869384765625 13.470978081226349 10.334869384765625 13.470978081226349 C 10.126014709472656 13.570643246173859 9.908119201660156 13.649432599544525 9.68255615234375 13.716100513935089 C 9.68255615234375 13.716100513935089 9.68255615234375 13.440337777137756 9.68255615234375 13.440337777137756 C 9.68255615234375 13.440337777137756 9.603134155273438 12.802952110767365 9.603134155273438 12.802952110767365 C 9.603134155273438 12.802952110767365 9.563423156738281 12.436278581619263 9.503913879394531 12.339980483055115 C 9.444404602050781 12.24334567785263 9.30535888671875 12.108326315879822 9.166427612304688 12.050412774085999 C 9.027496337890625 11.992162525653839 8.928276062011719 11.992162525653839 8.848854064941406 11.895864427089691 C 8.769432067871094 11.799229621887207 8.709922790527344 11.625488996505737 8.610588073730469 11.471277356147766 C 8.511367797851562 11.316729009151459 8.392234802246094 11.162517368793488 8.392234802246094 11.085074841976166 C 8.392234802246094 11.007632315158844 8.392234802246094 10.216371715068817 8.392234802246094 10.216371715068817 C 8.392234802246094 10.216371715068817 8.491455078125 9.483024656772614 8.491455078125 9.483024656772614 C 8.491455078125 9.483024656772614 8.709922790527344 9.32813960313797 8.709922790527344 9.32813960313797 C 8.709922790527344 9.32813960313797 8.967987060546875 9.038571894168854 8.967987060546875 9.038571894168854 C 8.967987060546875 9.038571894168854 9.146629333496094 8.98065835237503 9.146629333496094 8.98065835237503 C 9.146629333496094 8.98065835237503 9.761978149414062 9.096822142601013 9.761978149414062 9.096822142601013 C 9.761978149414062 9.096822142601013 10.198684692382812 9.096822142601013 10.198684692382812 9.096822142601013 C 10.198684692382812 9.096822142601013 10.37744140625 9.463495671749115 10.37744140625 9.463495671749115 C 10.37744140625 9.463495671749115 10.794235229492188 9.791447937488556 10.794235229492188 9.791447937488556 C 10.794235229492188 9.791447937488556 11.052299499511719 10.196842730045319 11.052299499511719 10.196842730045319 C 11.052299499511719 10.196842730045319 11.389785766601562 10.313006520271301 11.389785766601562 10.313006520271301 C 11.389785766601562 10.313006520271301 11.766983032226562 10.313006520271301 11.766983032226562 10.313006520271301 C 11.766983032226562 10.313006520271301 12.025047302246094 10.621429800987244 12.025047302246094 10.621429800987244 C 12.025047302246094 10.621429800987244 12.18377685546875 10.94971877336502 12.18377685546875 10.94971877336502 C 12.18377685546875 10.94971877336502 12.243400573730469 11.18170964717865 12.243400573730469 11.18170964717865 C 12.243400573730469 11.18170964717865 12.243400573730469 11.567238748073578 12.243400573730469 11.567238748073578 C 12.243400573730469 11.567238748073578 12.202545166015625 11.795862555503845 12.202545166015625 11.795862555503845 C 11.9503173828125 12.208664894104004 11.631027221679688 12.571634650230408 11.256690979003906 12.880731344223022 Z M 9.722267150878906 6.220000624656677 C 9.722267150878906 6.220000624656677 9.285560607910156 6.451991498470306 9.285560607910156 6.451991498470306 C 9.285560607910156 6.451991498470306 9.126716613769531 6.895770847797394 9.126716613769531 6.895770847797394 C 9.126716613769531 6.895770847797394 8.86865234375 7.127425014972687 8.86865234375 7.127425014972687 C 8.86865234375 7.127425014972687 8.015151977539062 7.127425014972687 8.015151977539062 7.127425014972687 C 8.015151977539062 7.127425014972687 7.6180419921875 7.28231006860733 7.6180419921875 7.28231006860733 C 7.6180419921875 7.28231006860733 7.598243713378906 7.591070055961609 7.598243713378906 7.591070055961609 C 7.598243713378906 7.591070055961609 7.439399719238281 7.841916501522064 7.439399719238281 7.841916501522064 C 7.439399719238281 7.841916501522064 7.399688720703125 8.111955225467682 7.399688720703125 8.111955225467682 C 7.399688720703125 8.111955225467682 7.4791107177734375 8.343609392642975 7.4791107177734375 8.343609392642975 C 7.4791107177734375 8.343609392642975 7.578330993652344 8.575600266456604 7.578330993652344 8.575600266456604 C 7.578330993652344 8.575600266456604 7.816596984863281 8.845302283763885 7.578330993652344 9.038571894168854 C 7.578330993652344 9.038571894168854 7.280670166015625 9.038571894168854 7.221046447753906 8.94193708896637 C 7.161537170410156 8.845302283763885 6.7247161865234375 8.575600266456604 6.645408630371094 8.498157739639282 C 6.565986633300781 8.421051919460297 6.30792236328125 8.343609392642975 6.30792236328125 8.343609392642975 C 6.30792236328125 8.343609392642975 5.990234375 8.228119015693665 5.990234375 8.228119015693665 C 5.990234375 8.228119015693665 5.692573547363281 8.208590030670166 5.692573547363281 8.208590030670166 C 5.692573547363281 8.208590030670166 5.712371826171875 7.803195238113403 5.712371826171875 7.803195238113403 C 5.712371826171875 7.803195238113403 5.692573547363281 7.4560506939888 5.692573547363281 7.4560506939888 C 5.692573547363281 7.4560506939888 5.5734405517578125 7.204530835151672 5.5734405517578125 7.204530835151672 C 5.5734405517578125 7.204530835151672 5.235954284667969 6.953684389591217 5.235954284667969 6.953684389591217 C 5.235954284667969 6.953684389591217 5.216156005859375 6.683308959007263 5.216156005859375 6.683308959007263 C 5.216156005859375 6.683308959007263 5.257240295410156 6.533474504947662 5.257240295410156 6.533474504947662 C 6.061302185058594 5.755682170391083 7.168632507324219 5.274191677570343 8.392234802246094 5.274191677570343 C 9.082542419433594 5.274191677570343 9.728103637695312 5.440188050270081 10.311065673828125 5.712920427322388 C 10.311065673828125 5.712920427322388 10.297904968261719 5.8146058320999146 10.297904968261719 5.8146058320999146 C 10.297904968261719 5.8146058320999146 9.722267150878906 6.220000624656677 9.722267150878906 6.220000624656677 Z"/></g></svg>